<?xml version="1.0" encoding="utf-8" ?>
<!-- Generator: Assembly 1.0 - http://assemblyapp.co -->
<svg version="1.1" xmlns="http://www.w3.org/2000/svg" xmlns:xlink="http://www.w3.org/1999/xlink" width="1000" height="100" viewBox="0 0 300 300">
	<g id="widget" transform="matrix(1,0,0,1,150,150)">
        <path class="outer-jaw skull-jaw" d="M-67.9978,92.5883 L-68.2331,13.6641 L0.416903,-25.9093 L68.8052,13.5747 L68.5434,92.6321 L0.390524,132.072 Z" fill="#4d4d4d" fill-opacity="1" />
        <path class="inner-jaw skull-jaw" d="M-45.8043,79.4763 L-45.8412,26.535 L0.268671,0.0949688 L46.0819,26.6849 L45.7851,79.7149 L0.0088988,106.066 Z" fill="#ffffff" fill-opacity="1" />
        <path d="M-94.7843,32.671 L-94.7555,-76.9331 L0.757935,-131.58 L95.5517,-76.4399 L94.832,33.347 L0.00948871,87.8111 Z" fill="#4d4d4d" fill-opacity="1" />
        <path d="M-73.6437,20.4543 L-73.6214,-64.618 L0.514047,-107.034 L74.0909,-64.2352 L73.5323,20.979 L-0.0668803,63.2528 Z" fill="#ffffff" fill-opacity="1" />
        <path class="left-eye" d="M-55.8526,6.0034 L-55.8466,-16.8933 L-35.8934,-28.3093 L-16.0907,-16.7903 L-16.241,6.14461 L-36.0498,17.5224 Z" fill="#4d4d4d" fill-opacity="1" />
        <path class="right-eye" d="M17.3939,6.0084 L17.3999,-16.8883 L37.353,-28.3043 L57.1558,-16.7853 L57.0054,6.14961 L37.1966,17.5274 Z" fill="#4d4d4d" fill-opacity="1" />
        <path d="M11.3007,38.2968 L0.273303,11.2806 L-10.9913,38.2245 Z" fill="#4d4d4d" fill-opacity="1" />
        <path d="M0.164833,31.7963 L-10.9093,38.1988 L0.162336,44.5831 L11.1462,38.2031 Z" fill="#4d4d4d" fill-opacity="1" />
	</g>
</svg>